HIERARCHY
ROOT Hips
{
  OFFSET 43.0842 91.1655 101.099
  CHANNELS 6 Xposition Yposition Zposition Zrotation Xrotation Yrotation
  JOINT LeftUpLeg
  {
    OFFSET 8.64259 1.95398 -2.38835
    CHANNELS 3 Zrotation Xrotation Yrotation
    JOINT LeftLeg
    {
      OFFSET 43.7702 0 0
      CHANNELS 3 Zrotation Xrotation Yrotation
      JOINT LeftFoot
      {
        OFFSET 40.6238 0 0
        CHANNELS 3 Zrotation Xrotation Yrotation
        JOINT LeftToeBase
        {
          OFFSET 12.7242 0 0
          CHANNELS 3 Zrotation Xrotation Yrotation
          End Site
          {
            OFFSET 0 0 0
          }
        }
      }
    }
  }
  JOINT RightUpLeg
  {
    OFFSET -8.2249 1.95398 -2.59336
    CHANNELS 3 Zrotation Xrotation Yrotation
    JOINT RightLeg
    {
      OFFSET 43.5653 0 0
      CHANNELS 3 Zrotation Xrotation Yrotation
      JOINT RightFoot
      {
        OFFSET 40.6238 0 0
        CHANNELS 3 Zrotation Xrotation Yrotation
        JOINT RightToeBase
        {
          OFFSET 12.7242 0 0
          CHANNELS 3 Zrotation Xrotation Yrotation
          End Site
          {
            OFFSET 0 0 0
          }
        }
      }
    }
  }
  JOINT Spine
  {
    OFFSET 0.165834 0.87714 6.61349
    CHANNELS 3 Zrotation Xrotation Yrotation
    JOINT Spine1
    {
      OFFSET 7.38963 1.71661e-005 0
      CHANNELS 3 Zrotation Xrotation Yrotation
      JOINT Spine2
      {
        OFFSET 11.9445 1.14441e-005 0
        CHANNELS 3 Zrotation Xrotation Yrotation
        JOINT Spine3
        {
          OFFSET 14.7254 4.19617e-005 0
          CHANNELS 3 Zrotation Xrotation Yrotation
          JOINT Spine4
          {
            OFFSET 10.9679 0 0
            CHANNELS 3 Zrotation Xrotation Yrotation
            JOINT RightShoulder
            {
              OFFSET 2.46616 -1.6653 3.69651
              CHANNELS 3 Zrotation Xrotation Yrotation
              JOINT RightArm
              {
                OFFSET 13.0012 0 0
                CHANNELS 3 Zrotation Xrotation Yrotation
                JOINT RightForeArm
                {
                  OFFSET 28.7848 1.52588e-005 0
                  CHANNELS 3 Zrotation Xrotation Yrotation
                  JOINT RightHand
                  {
                    OFFSET 26.5688 1.52588e-005 0
                    CHANNELS 3 Zrotation Xrotation Yrotation
                    End Site
                    {
                      OFFSET 0 0 0
                    }
                  }
                }
              }
            }
            JOINT LeftShoulder
            {
              OFFSET 2.38034 -1.29275 -3.7523
              CHANNELS 3 Zrotation Xrotation Yrotation
              JOINT LeftArm
              {
                OFFSET 16.3182 6.10351e-005 0
                CHANNELS 3 Zrotation Xrotation Yrotation
                JOINT LeftForeArm
                {
                  OFFSET 27.0901 0 0
                  CHANNELS 3 Zrotation Xrotation Yrotation
                  JOINT LeftHand
                  {
                    OFFSET 24.5451 1.52588e-005 0
                    CHANNELS 3 Zrotation Xrotation Yrotation
                    End Site
                    {
                      OFFSET 0 0 0
                    }
                  }
                }
              }
            }
            JOINT Neck
            {
              OFFSET 5.0226 -0.0266342 0
              CHANNELS 3 Zrotation Xrotation Yrotation
              JOINT Head
              {
                OFFSET 6.69364 2.86102e-005 0
                CHANNELS 3 Zrotation Xrotation Yrotation
                End Site
                {
                  OFFSET 0 0 0
                }
              }
            }
          }
        }
      }
    }
  }
}
MOTION
Frames:	18
Frame Time:	0.0333333
-22.2442 89.5712 56.3427 98.6822 14.8075 86.8132 -171.076 7.43743 101.75 -35.6059 19.0062 -0.0861852 62.3575 0.568765 17.2274 34.1259 -0.408374 12.5573 170.858 13.4226 81.135 -36.1412 -2.27409 -1.515 67.3447 -5.80063 -6.3859 37.7168 -5.31981 1.56541 -0.50962 7.30179 -89.8002 12.2728 -0.918098 0.502614 0.602093 -0.895101 0.542527 -21.9355 -1.0267 0.203429 -1.92288 -1.02672 0.203422 95.6785 -34.009 -94.5418 -22.9963 -22.8638 -56.5844 9.88236 -3.05462 -103.279 -3.52201 1.8168 15.1002 -87.5979 -35.9844 79.4675 1.53585 -5.84366 -88.4507 -13.0461 17.0403 -89.9702 25.0258 3.04392 -2.90193 -12.2242 -14.5132 -10.7623 2.69054 -14.444 -4.3274 
-21.4241 89.6375 57.4232 98.0788 15.2132 86.9186 -170.432 7.00845 102.731 -33.1011 16.0144 -0.225125 62.5183 1.22398 14.6187 33.8363 -0.531123 12.0536 170.135 13.3787 81.5276 -36.1558 -4.25245 -0.701584 68.3335 -6.63582 -8.21595 37.2383 -5.02873 1.39915 -0.494676 7.19688 -89.9229 12.4815 -0.946356 0.262677 0.810829 -0.933842 0.304055 -21.7271 -0.981528 -0.0339148 -1.71443 -0.98152 -0.0339157 96.2877 -33.5302 -93.4589 -25.8204 -24.9508 -57.1154 9.826 -2.28586 -105.411 -3.44575 1.78202 14.5242 -88.1056 -36.7084 78.745 3.32792 -4.65656 -88.9846 -13.2573 16.1738 -89.4509 25.7767 3.14284 -2.55593 -13.0389 -14.8169 -11.7578 3.46918 -14.7586 -3.0975 
-20.7106 89.6898 58.4449 97.8035 15.1761 86.469 -169.823 6.69243 103.334 -31.6432 15.1607 -0.72871 62.1067 -0.0282615 12.9534 34.0454 0.0333961 11.6966 170.127 14.1997 81.8751 -37.6989 -4.33154 -0.725854 68.1119 -6.55912 -9.20467 38.263 -5.58934 1.5083 -0.529272 7.17826 -89.9459 12.5188 -1.02564 0.22667 0.848265 -1.01465 0.271585 -21.6901 -1.04632 -0.0920909 -1.67749 -1.04634 -0.0920961 96.1822 -33.3376 -93.6963 -27.3269 -25.9498 -57.7102 8.79183 -1.93357 -106.434 -4.09575 1.66376 15.8839 -87.9577 -36.3372 78.9143 3.1842 -4.59289 -89.54 -14.303 16.5298 -89.1335 25.6202 3.09099 -3.58245 -12.7895 -14.9367 -11.4747 3.07472 -14.8625 -3.32661 
-20.1623 89.6652 59.3093 97.8177 15.0131 85.865 -169.393 6.00777 103.669 -30.411 15.0333 -1.12121 61.9726 -0.547582 11.8531 33.8721 -0.242727 11.7032 170.263 14.3608 82.0188 -38.5109 -4.52767 -0.951772 68.5406 -7.12417 -9.9606 38.6249 -5.72468 1.29228 -0.588076 7.18253 -89.9024 12.5109 -1.12182 0.324668 0.840426 -1.10642 0.373729 -21.6986 -1.16752 -0.0275394 -1.68596 -1.16754 -0.0275363 95.9608 -33.4988 -94.095 -27.4683 -26.7231 -58.557 8.63419 -2.04756 -106.32 -4.56776 1.48532 16.1085 -87.7494 -35.867 79.1689 3.29938 -4.54685 -89.8903 -14.4253 16.4453 -88.6707 26.0912 3.1507 -3.40551 -13.0171 -14.7629 -11.1302 3.21349 -14.7437 -3.58651 
-19.7151 89.5657 60.086 97.6369 14.9639 85.6945 -169.448 5.78344 103.9 -29.6945 13.2891 -1.01125 62.1326 -0.756993 10.4756 33.5667 -0.588141 11.5024 170.494 14.669 82.4282 -39.5751 -5.19616 -1.08897 68.819 -7.61732 -10.7305 38.7602 -5.71109 0.942723 -0.650616 7.18323 -89.8821 12.5101 -1.23656 0.378277 0.839691 -1.2187 0.432328 -21.7002 -1.29309 -0.0109102 -1.68753 -1.29308 -0.0109142 95.7948 -33.6821 -94.3809 -26.8168 -27.1875 -59.3081 8.37521 -2.65498 -106.163 -5.29122 1.20598 16.4031 -87.388 -35.373 79.6949 2.832 -4.69636 -90.2245 -13.3896 16.4156 -88.2526 26.7334 3.25955 -2.49604 -12.9089 -14.4992 -10.8757 3.20868 -14.4911 -3.85618 
-19.3569 89.4612 60.6782 97.4185 14.9335 85.579 -169.834 5.7441 103.903 -29.5067 12.7744 -0.720413 62.0334 -1.38802 10.2011 33.575 -0.825355 11.8758 170.498 14.9635 82.8289 -39.8633 -4.23244 -1.05279 69.1159 -8.10208 -11.1167 38.9678 -5.93372 1.42483 -0.660204 7.18598 -89.8866 12.5046 -1.25758 0.371699 0.834239 -1.24001 0.426682 -21.7058 -1.31115 -0.0235058 -1.69317 -1.31116 -0.0235112 95.6855 -33.9437 -94.5418 -26.2936 -27.5442 -59.0261 8.33711 -3.18525 -106.66 -4.14775 1.59415 15.4628 -87.0795 -34.9353 80.1462 1.87419 -4.28663 -90.8573 -13.1589 16.4994 -87.8209 28.1136 3.42461 -2.56309 -12.7544 -14.4087 -11.0989 3.14684 -14.3596 -3.60506 
-19.046 89.3066 61.1349 97.4369 14.6847 85.3082 -170.044 5.24139 103.78 -29.1826 13.3342 -0.499996 61.9627 -1.44302 10.6826 33.3837 -1.51503 12.4421 170.514 15.2473 82.9473 -40.6357 -3.87553 -1.12879 69.6169 -8.54941 -11.3885 39.2599 -6.19637 1.90464 -0.607299 7.22585 -89.8972 12.4244 -1.15784 0.337775 0.753952 -1.14186 0.388407 -21.7853 -1.20582 -0.025867 -1.7727 -1.20582 -0.0258706 95.9737 -33.8781 -94.0011 -26.4329 -28.1456 -59.3969 7.63068 -3.01968 -107.01 -3.61674 1.74166 14.8125 -87.0473 -35.0686 80.2352 1.46174 -4.256 -91.7416 -13.1251 16.2772 -87.417 28.0742 3.44628 -2.05409 -12.2039 -14.6204 -11.1553 2.72992 -14.4931 -3.54363 
-18.8999 89.1159 61.5624 97.2775 14.4339 85.1343 -170.209 5.25825 103.755 -29.3127 14.6992 -0.451455 61.9297 -1.5319 11.7904 33.3347 -2.02722 13.0626 170.668 15.8322 83.0412 -41.6395 -4.30863 -1.2195 70.1496 -9.05127 -11.5951 39.2227 -6.03164 1.28031 -0.567229 7.21322 -89.9096 12.4493 -1.08414 0.304948 0.778793 -1.06969 0.352376 -21.76 -1.12565 -0.0350149 -1.74735 -1.12567 -0.0350238 95.9641 -33.7415 -94.0442 -26.326 -28.5771 -59.7578 7.18928 -3.09652 -106.738 -5.63558 1.04025 16.1876 -87.227 -35.0552 79.9087 0.560205 -4.14271 -91.7148 -13.4573 16.77 -87.0289 28.7215 3.49931 -2.54723 -12.9301 -14.5881 -10.9631 3.12853 -14.568 -3.6974 
-18.8603 88.9831 61.8237 97.29 14.2021 84.8045 -170.382 5.02641 103.475 -29.259 14.6434 -0.309171 61.8523 -1.5649 11.8941 33.2663 -2.13675 13.0606 170.626 16.4322 82.9424 -42.5404 -4.05129 -1.30249 70.1664 -8.97069 -11.6016 39.621 -6.33765 1.71621 -0.567337 7.2379 -89.8706 12.4001 -1.06581 0.380095 0.72954 -1.04804 0.426637 -21.8091 -1.13076 0.0421684 -1.79645 -1.13077 0.0421635 95.6926 -33.8232 -94.5483 -26.1051 -28.6987 -59.9711 7.87051 -3.1018 -106.547 -6.04151 0.854411 16.0634 -87.084 -34.9635 80.1456 0.430512 -3.73241 -91.7799 -13.131 16.5773 -87.0645 28.7079 3.5257 -2.06966 -13.4176 -14.4764 -10.9013 3.39443 -14.5453 -4.07336 
-18.9989 88.8415 61.9487 97.0139 14.0715 84.4733 -170.324 5.27051 103.208 -29.3064 14.6797 -0.509639 61.9534 -1.2667 11.7317 33.2938 -1.96331 12.8772 170.551 17.3092 82.609 -43.2485 -3.91962 -1.33321 70.4189 -9.20679 -11.3088 39.7751 -6.47456 1.97407 -0.46835 7.25587 -89.7633 12.3653 -0.818219 0.565542 0.694472 -0.792523 0.600994 -21.8424 -0.95036 0.29347 -1.82977 -0.950345 0.293475 96.0257 -35.3407 -93.6606 -26.8691 -28.2875 -59.8543 8.19396 -3.00939 -106.755 -6.37282 0.698478 15.8864 -86.6846 -33.0288 80.4144 -1.79 -2.80338 -93.1728 -13.0854 17.3639 -85.9349 29.2208 3.56746 -2.41019 -13.9266 -14.7287 -14.0511 4.39916 -14.6635 -2.04373 
-19.3486 88.7744 61.8192 96.7034 14.4722 84.0044 -170.176 5.75894 102.791 -29.1824 14.5528 -0.918345 62.0909 -0.773648 11.3046 33.437 -1.16941 12.0643 170.074 18.3633 81.7021 -43.8644 -4.32009 -1.11083 70.4805 -9.20885 -10.8811 39.947 -6.54837 1.91678 -0.376145 7.23942 -89.648 12.3978 -0.580011 0.769701 0.726696 -0.545551 0.79447 -21.8084 -0.784527 0.559806 -1.79576 -0.78451 0.559807 96.4038 -37.6712 -92.5902 -27.5419 -27.8915 -58.0705 7.52591 -2.8352 -107.559 -5.86356 0.946499 16.2494 -86.3872 -31.3812 80.572 -3.87387 -1.11316 -94.1337 -13.3414 17.8408 -84.7036 29.4771 3.55763 -3.02455 -14.5333 -15.1185 -17.7961 5.48351 -14.8755 0.665928 
-19.8894 88.7293 61.4439 96.1918 14.9877 83.5647 -170.211 6.45594 102.252 -29.2662 14.7658 -1.18926 62.4832 -0.010765 10.3658 33.6818 0.0200816 10.8481 169.504 19.5069 80.5985 -44.0849 -4.92498 -0.842313 70.5172 -9.30865 -10.3637 39.2554 -6.17192 1.81209 -0.560376 7.20922 -89.8619 12.457 -1.04761 0.395942 0.786376 -1.02917 0.441665 -21.7521 -1.11818 0.0627508 -1.73949 -1.11817 0.0627453 95.8791 -32.4624 -94.4344 -21.8214 -26.3445 -56.6365 5.49229 -3.46635 -105.499 -4.72949 1.40842 16.0275 -87.4579 -36.6704 79.8828 -0.116998 -1.68843 -91.0759 -11.9817 16.3153 -87.2954 27.6702 3.38559 -2.32053 -13.4326 -15.0729 -9.16727 3.85955 -15.291 -5.3621 
-20.6725 88.8124 61.006 95.726 15.8579 83.4003 -170.418 7.41589 101.984 -29.787 14.2855 -0.900618 63.079 1.47202 6.55183 34.252 0.836406 10.9463 169.106 20.6346 79.9194 -44.0033 -4.46998 -0.601915 69.4738 -8.05567 -10.4353 40.1657 -6.98666 3.39987 -0.556048 7.22441 -89.8767 12.4271 -1.04619 0.365971 0.756558 -1.02906 0.411663 -21.782 -1.10782 0.0345927 -1.76931 -1.10782 0.0345914 96.1854 -32.9735 -93.7558 -19.5287 -23.8301 -52.7026 2.95189 -2.92863 -105.606 -3.38931 1.98242 16.0974 -87.4348 -36.6052 79.902 -1.06578 -1.43898 -91.0319 -10.8293 16.0687 -87.6574 25.7384 3.13011 -2.76945 -13.4038 -15.7312 -10.1392 4.29226 -15.9118 -5.04939 
-21.5184 88.7341 60.382 95.3279 16.7045 83.1413 -170.853 8.37552 102.005 -30.916 14.302 -0.371797 64.1897 3.03231 3.41618 34.8095 2.25123 10.0274 168.852 21.434 79.0238 -43.5494 -3.44584 -0.563881 69.3999 -8.24429 -9.28031 40.4952 -7.14513 3.38893 -0.537828 7.23359 -89.8825 12.4087 -1.01288 0.35023 0.738043 -0.996435 0.394458 -21.8003 -1.07128 0.0295983 -1.78761 -1.07128 0.0295945 96.467 -33.8103 -93.0654 -16.6814 -20.467 -47.0214 4.71037 -2.87489 -106.475 -5.47921 1.21998 17.3565 -87.6516 -37.0469 79.6238 -2.14632 -1.56214 -90.9234 -9.49788 16.3294 -88.0197 24.6589 3.00965 -2.46977 -14.1508 -16.4965 -10.8258 4.80032 -16.8067 -5.66551 
-22.4879 88.5208 59.5923 94.7128 17.2681 83.1287 -170.839 9.15592 102.83 -31.2715 14.4595 -0.044664 64.1822 3.31733 3.80446 35.3373 3.7924 8.70923 168.926 22.7918 78.2527 -43.755 -2.39926 -0.639607 69.0963 -7.95628 -7.82604 41.2053 -7.57389 3.77892 -0.533656 7.24322 -89.8887 12.3893 -1.00755 0.337104 0.718735 -0.99169 0.381104 -21.8196 -1.06225 0.0186792 -1.8069 -1.06224 0.0186713 96.7479 -34.8576 -92.3583 -11.4252 -13.3293 -41.3118 0.505309 -3.79997 -104.722 -3.33136 2.1123 16.9714 -87.5539 -37.254 79.8431 -4.1422 -2.00598 -90.9046 -8.62688 17.0208 -88.241 23.4762 2.86858 -2.24437 -14.8771 -17.2025 -11.7928 5.43656 -17.6132 -5.69931 
-23.4762 88.3407 58.5826 94.0469 17.4285 83.3397 -170.478 9.92693 104.277 -31.8857 13.6099 0.148278 63.3615 1.88152 3.68134 34.1657 1.5507 9.58333 168.966 23.7097 77.4835 -43.1946 -2.84856 -0.663132 68.7946 -7.88748 -7.11193 40.9733 -7.4044 3.50827 -0.530462 7.2282 -89.9321 12.4191 -1.02172 0.252335 0.748477 -1.00959 0.297049 -21.7899 -1.05029 -0.0664352 -1.77726 -1.0503 -0.0664339 96.7967 -35.647 -92.1453 -6.06865 -5.3983 -36.7152 -2.94725 -4.72268 -100.951 -3.02631 2.02609 15.1359 -87.6344 -37.8487 79.8403 -5.77375 -2.79666 -89.7756 -7.61295 17.6165 -89.6708 23.1036 2.83026 -1.68608 -15.9141 -17.7808 -11.1803 5.55245 -18.4473 -7.2352 
-24.5764 87.9875 57.4231 93.4483 17.4766 83.7307 -170.269 10.4622 106.673 -31.7458 15.4749 0.302629 61.8631 -0.521456 6.41765 32.1106 -2.03021 10.2862 169.157 24.3444 76.8865 -42.2022 -3.17515 -0.711111 68.9573 -8.2452 -7.1078 40.2739 -7.04732 3.43638 -0.543751 7.21662 -89.952 12.4421 -1.05752 0.217028 0.771574 -1.04696 0.263367 -21.767 -1.07385 -0.110867 -1.75437 -1.07387 -0.110874 96.83 -36.5937 -91.9462 -0.55003 2.91069 -32.8968 -3.59342 -6.01017 -97.5463 -4.99561 1.17833 14.6958 -87.212 -37.1868 80.4269 -8.16177 -3.22691 -88.3911 -5.46616 18.2124 -91.7502 23.9855 2.9601 -0.535283 -16.572 -18.2404 -11.3447 5.5544 -19.037 -7.91973 
-25.7658 87.8958 55.9906 92.9361 17.486 84.1333 -169.777 10.3141 108.421 -30.6015 15.4801 0.470538 59.5743 -3.73844 6.25966 30.6582 -4.9239 11.1094 169.545 25.447 76.0732 -42.0063 -3.69127 -0.858771 67.4307 -6.64465 -6.23266 40.4743 -7.19192 3.65333 -0.578499 7.24716 -89.9726 12.3811 -1.13652 0.184012 0.710667 -1.12731 0.233854 -21.8284 -1.13928 -0.166109 -1.81579 -1.13929 -0.166115 97.3228 -37.8158 -90.8707 4.03139 11.2573 -31.9636 -7.82397 -7.41337 -93.3427 -7.53868 -0.107308 11.6855 -86.7276 -36.8311 81.1992 -10.5669 -4.00337 -88.0723 -4.07397 18.8072 -92.9902 23.3689 2.87465 -0.612034 -16.0452 -18.9777 -11.6947 4.58983 -19.6803 -8.28272 
